<svg id="visual" viewBox="0 0 900 450" width="900" height="450" xmlns="http://www.w3.org/2000/svg" xmlns:xlink="http://www.w3.org/1999/xlink" version="1.1"><rect x="0" y="0" width="900" height="450" fill="#4a08ae"></rect><path d="M0 296L129 331L257 328L386 332L514 313L643 264L771 288L900 278L900 451L771 451L643 451L514 451L386 451L257 451L129 451L0 451Z" fill="#39008e"></path><path d="M0 354L129 295L257 333L386 304L514 317L643 305L771 344L900 317L900 451L771 451L643 451L514 451L386 451L257 451L129 451L0 451Z" fill="#39008e"></path><path d="M0 352L129 365L257 345L386 364L514 344L643 333L771 343L900 370L900 451L771 451L643 451L514 451L386 451L257 451L129 451L0 451Z" fill="#39008e"></path><path d="M0 370L129 361L257 369L386 403L514 371L643 387L771 385L900 401L900 451L771 451L643 451L514 451L386 451L257 451L129 451L0 451Z" fill="#39008e"></path><path d="M0 404L129 420L257 421L386 421L514 414L643 411L771 405L900 415L900 451L771 451L643 451L514 451L386 451L257 451L129 451L0 451Z" fill="#39008e"></path></svg>