<svg id="visual" viewBox="0 0 900 450" width="900" height="450" xmlns="http://www.w3.org/2000/svg" xmlns:xlink="http://www.w3.org/1999/xlink" version="1.1"><rect x="0" y="0" width="900" height="450" fill="#dddddd"></rect><path d="M0 260L113 260L113 249L225 249L225 283L338 283L338 191L450 191L450 263L563 263L563 237L675 237L675 191L788 191L788 229L900 229L900 213L900 451L900 451L788 451L788 451L675 451L675 451L563 451L563 451L450 451L450 451L338 451L338 451L225 451L225 451L113 451L113 451L0 451Z" fill="#cccccc"></path><path d="M0 313L113 313L113 316L225 316L225 283L338 283L338 309L450 309L450 303L563 303L563 281L675 281L675 314L788 314L788 295L900 295L900 264L900 451L900 451L788 451L788 451L675 451L675 451L563 451L563 451L450 451L450 451L338 451L338 451L225 451L225 451L113 451L113 451L0 451Z" fill="#b5b5b5"></path><path d="M0 396L113 396L113 383L225 383L225 365L338 365L338 405L450 405L450 405L563 405L563 381L675 381L675 370L788 370L788 395L900 395L900 343L900 451L900 451L788 451L788 451L675 451L675 451L563 451L563 451L450 451L450 451L338 451L338 451L225 451L225 451L113 451L113 451L0 451Z" fill="#9e9e9e"></path></svg>