<svg id="visual" viewBox="0 0 900 600" width="900" height="600" xmlns="http://www.w3.org/2000/svg" xmlns:xlink="http://www.w3.org/1999/xlink" version="1.1"><g stroke-width="1" stroke-linejoin="bevel"><path d="M418 329L325 381L403 389Z" fill="#adadad" stroke="#adadad"></path><path d="M418 329L309 267L325 381Z" fill="#adadad" stroke="#adadad"></path><path d="M427 497L475 428L403 389Z" fill="#cacaca" stroke="#cacaca"></path><path d="M403 389L475 428L418 329Z" fill="#c4c4c4" stroke="#c4c4c4"></path><path d="M475 428L511 324L418 329Z" fill="#dbdbdb" stroke="#dbdbdb"></path><path d="M418 329L382 178L309 267Z" fill="#b8b8b8" stroke="#b8b8b8"></path><path d="M325 381L427 497L403 389Z" fill="#a2a2a2" stroke="#a2a2a2"></path><path d="M427 497L482 469L475 428Z" fill="#b3b3b3" stroke="#b3b3b3"></path><path d="M563 428L562 319L511 324Z" fill="#c4c4c4" stroke="#c4c4c4"></path><path d="M382 178L273 210L309 267Z" fill="#a8a8a8" stroke="#a8a8a8"></path><path d="M172 400L239 465L325 381Z" fill="#b3b3b3" stroke="#b3b3b3"></path><path d="M530 185L382 178L418 329Z" fill="#dbdbdb" stroke="#dbdbdb"></path><path d="M175 295L325 381L309 267Z" fill="#d5d5d5" stroke="#d5d5d5"></path><path d="M325 381L271 533L427 497Z" fill="#adadad" stroke="#adadad"></path><path d="M563 428L511 324L475 428Z" fill="#a2a2a2" stroke="#a2a2a2"></path><path d="M530 185L414 138L382 178Z" fill="#d5d5d5" stroke="#d5d5d5"></path><path d="M273 210L175 295L309 267Z" fill="#a8a8a8" stroke="#a8a8a8"></path><path d="M175 295L172 400L325 381Z" fill="#bebebe" stroke="#bebebe"></path><path d="M262 600L271 533L217 600Z" fill="#dbdbdb" stroke="#dbdbdb"></path><path d="M239 465L271 533L325 381Z" fill="#cacaca" stroke="#cacaca"></path><path d="M268 111L237 183L273 210Z" fill="#a8a8a8" stroke="#a8a8a8"></path><path d="M273 210L237 183L175 295Z" fill="#adadad" stroke="#adadad"></path><path d="M567 508L563 428L482 469Z" fill="#b8b8b8" stroke="#b8b8b8"></path><path d="M482 469L563 428L475 428Z" fill="#b3b3b3" stroke="#b3b3b3"></path><path d="M530 185L418 329L511 324Z" fill="#d5d5d5" stroke="#d5d5d5"></path><path d="M382 178L268 111L273 210Z" fill="#a8a8a8" stroke="#a8a8a8"></path><path d="M562 319L530 185L511 324Z" fill="#c4c4c4" stroke="#c4c4c4"></path><path d="M521 600L567 508L482 469Z" fill="#dbdbdb" stroke="#dbdbdb"></path><path d="M715 236L569 176L562 319Z" fill="#d5d5d5" stroke="#d5d5d5"></path><path d="M521 600L482 469L427 497Z" fill="#b3b3b3" stroke="#b3b3b3"></path><path d="M414 138L268 111L382 178Z" fill="#dbdbdb" stroke="#dbdbdb"></path><path d="M106 236L100 277L175 295Z" fill="#a2a2a2" stroke="#a2a2a2"></path><path d="M271 533L428 600L427 497Z" fill="#bebebe" stroke="#bebebe"></path><path d="M562 319L569 176L530 185Z" fill="#b8b8b8" stroke="#b8b8b8"></path><path d="M530 185L537 109L414 138Z" fill="#bebebe" stroke="#bebebe"></path><path d="M673 417L562 319L563 428Z" fill="#adadad" stroke="#adadad"></path><path d="M217 600L271 533L239 465Z" fill="#cacaca" stroke="#cacaca"></path><path d="M271 533L262 600L428 600Z" fill="#c4c4c4" stroke="#c4c4c4"></path><path d="M106 236L175 295L237 183Z" fill="#a8a8a8" stroke="#a8a8a8"></path><path d="M175 295L100 277L172 400Z" fill="#a8a8a8" stroke="#a8a8a8"></path><path d="M70 527L217 600L239 465Z" fill="#cacaca" stroke="#cacaca"></path><path d="M134 112L106 236L237 183Z" fill="#a8a8a8" stroke="#a8a8a8"></path><path d="M569 176L537 109L530 185Z" fill="#dbdbdb" stroke="#dbdbdb"></path><path d="M336 0L233 70L268 111Z" fill="#cacaca" stroke="#cacaca"></path><path d="M70 527L239 465L172 400Z" fill="#b8b8b8" stroke="#b8b8b8"></path><path d="M428 600L521 600L427 497Z" fill="#d5d5d5" stroke="#d5d5d5"></path><path d="M0 316L71 399L100 277Z" fill="#adadad" stroke="#adadad"></path><path d="M100 277L71 399L172 400Z" fill="#a8a8a8" stroke="#a8a8a8"></path><path d="M336 0L268 111L414 138Z" fill="#d5d5d5" stroke="#d5d5d5"></path><path d="M268 111L233 70L237 183Z" fill="#a2a2a2" stroke="#a2a2a2"></path><path d="M686 461L563 428L567 508Z" fill="#a8a8a8" stroke="#a8a8a8"></path><path d="M686 461L673 417L563 428Z" fill="#cacaca" stroke="#cacaca"></path><path d="M569 176L570 90L537 109Z" fill="#a2a2a2" stroke="#a2a2a2"></path><path d="M419 0L336 0L414 138Z" fill="#adadad" stroke="#adadad"></path><path d="M698 65L570 90L569 176Z" fill="#b3b3b3" stroke="#b3b3b3"></path><path d="M233 70L134 112L237 183Z" fill="#bebebe" stroke="#bebebe"></path><path d="M605 600L686 461L567 508Z" fill="#cfcfcf" stroke="#cfcfcf"></path><path d="M521 600L605 600L567 508Z" fill="#cfcfcf" stroke="#cfcfcf"></path><path d="M71 399L70 527L172 400Z" fill="#b3b3b3" stroke="#b3b3b3"></path><path d="M419 0L414 138L480 0Z" fill="#a8a8a8" stroke="#a8a8a8"></path><path d="M233 70L183 0L134 112Z" fill="#adadad" stroke="#adadad"></path><path d="M480 0L414 138L537 109Z" fill="#d5d5d5" stroke="#d5d5d5"></path><path d="M823 391L725 283L673 417Z" fill="#b3b3b3" stroke="#b3b3b3"></path><path d="M673 417L725 283L562 319Z" fill="#adadad" stroke="#adadad"></path><path d="M725 283L715 236L562 319Z" fill="#b3b3b3" stroke="#b3b3b3"></path><path d="M561 0L480 0L537 109Z" fill="#d5d5d5" stroke="#d5d5d5"></path><path d="M0 212L100 277L106 236Z" fill="#a2a2a2" stroke="#a2a2a2"></path><path d="M0 212L0 316L100 277Z" fill="#dbdbdb" stroke="#dbdbdb"></path><path d="M71 399L0 483L70 527Z" fill="#a2a2a2" stroke="#a2a2a2"></path><path d="M70 527L94 600L217 600Z" fill="#a2a2a2" stroke="#a2a2a2"></path><path d="M0 600L94 600L70 527Z" fill="#bebebe" stroke="#bebebe"></path><path d="M0 316L0 424L71 399Z" fill="#bebebe" stroke="#bebebe"></path><path d="M0 424L0 483L71 399Z" fill="#dbdbdb" stroke="#dbdbdb"></path><path d="M134 112L0 212L106 236Z" fill="#dbdbdb" stroke="#dbdbdb"></path><path d="M336 0L183 0L233 70Z" fill="#bebebe" stroke="#bebebe"></path><path d="M134 112L0 90L0 212Z" fill="#cacaca" stroke="#cacaca"></path><path d="M698 65L561 0L570 90Z" fill="#bebebe" stroke="#bebebe"></path><path d="M570 90L561 0L537 109Z" fill="#a8a8a8" stroke="#a8a8a8"></path><path d="M725 283L761 227L715 236Z" fill="#a8a8a8" stroke="#a8a8a8"></path><path d="M715 236L698 65L569 176Z" fill="#a8a8a8" stroke="#a8a8a8"></path><path d="M832 337L761 227L725 283Z" fill="#c4c4c4" stroke="#c4c4c4"></path><path d="M183 0L107 0L134 112Z" fill="#dbdbdb" stroke="#dbdbdb"></path><path d="M769 117L698 65L715 236Z" fill="#dbdbdb" stroke="#dbdbdb"></path><path d="M605 600L734 600L686 461Z" fill="#adadad" stroke="#adadad"></path><path d="M686 461L823 391L673 417Z" fill="#d5d5d5" stroke="#d5d5d5"></path><path d="M0 483L0 600L70 527Z" fill="#cfcfcf" stroke="#cfcfcf"></path><path d="M107 0L0 90L134 112Z" fill="#adadad" stroke="#adadad"></path><path d="M813 465L823 391L686 461Z" fill="#cfcfcf" stroke="#cfcfcf"></path><path d="M734 600L813 465L686 461Z" fill="#b8b8b8" stroke="#b8b8b8"></path><path d="M900 200L769 117L761 227Z" fill="#cacaca" stroke="#cacaca"></path><path d="M761 227L769 117L715 236Z" fill="#cfcfcf" stroke="#cfcfcf"></path><path d="M900 320L832 337L900 407Z" fill="#a2a2a2" stroke="#a2a2a2"></path><path d="M823 391L832 337L725 283Z" fill="#bebebe" stroke="#bebebe"></path><path d="M792 0L726 0L698 65Z" fill="#adadad" stroke="#adadad"></path><path d="M698 65L726 0L561 0Z" fill="#b3b3b3" stroke="#b3b3b3"></path><path d="M107 0L0 0L0 90Z" fill="#b3b3b3" stroke="#b3b3b3"></path><path d="M734 600L831 600L813 465Z" fill="#adadad" stroke="#adadad"></path><path d="M900 407L832 337L823 391Z" fill="#dbdbdb" stroke="#dbdbdb"></path><path d="M900 407L823 391L813 465Z" fill="#cfcfcf" stroke="#cfcfcf"></path><path d="M832 337L900 200L761 227Z" fill="#c4c4c4" stroke="#c4c4c4"></path><path d="M769 117L792 0L698 65Z" fill="#bebebe" stroke="#bebebe"></path><path d="M900 500L900 407L813 465Z" fill="#c4c4c4" stroke="#c4c4c4"></path><path d="M900 134L792 0L769 117Z" fill="#a8a8a8" stroke="#a8a8a8"></path><path d="M900 320L900 200L832 337Z" fill="#cacaca" stroke="#cacaca"></path><path d="M831 600L900 500L813 465Z" fill="#d5d5d5" stroke="#d5d5d5"></path><path d="M900 200L900 134L769 117Z" fill="#dbdbdb" stroke="#dbdbdb"></path><path d="M831 600L900 600L900 500Z" fill="#bebebe" stroke="#bebebe"></path><path d="M900 134L900 0L792 0Z" fill="#dbdbdb" stroke="#dbdbdb"></path></g></svg>