<svg id="visual" viewBox="0 0 900 600" width="900" height="600" xmlns="http://www.w3.org/2000/svg" xmlns:xlink="http://www.w3.org/1999/xlink" version="1.1"><path d="M0 211L82 175L164 121L245 109L327 85L409 109L491 187L573 289L655 115L736 115L818 97L900 241L900 0L818 0L736 0L655 0L573 0L491 0L409 0L327 0L245 0L164 0L82 0L0 0Z" fill="#eeeeee"></path><path d="M0 307L82 301L164 331L245 409L327 301L409 403L491 331L573 397L655 367L736 349L818 277L900 367L900 239L818 95L736 113L655 113L573 287L491 185L409 107L327 83L245 107L164 119L82 173L0 209Z" fill="#cfcfcf"></path><path d="M0 397L82 415L164 433L245 481L327 385L409 463L491 457L573 475L655 409L736 457L818 385L900 469L900 365L818 275L736 347L655 365L573 395L491 329L409 401L327 299L245 407L164 329L82 299L0 305Z" fill="#b0b0b0"></path><path d="M0 547L82 511L164 529L245 547L327 505L409 553L491 535L573 547L655 565L736 559L818 523L900 517L900 467L818 383L736 455L655 407L573 473L491 455L409 461L327 383L245 479L164 431L82 413L0 395Z" fill="#929292"></path><path d="M0 601L82 601L164 601L245 601L327 601L409 601L491 601L573 601L655 601L736 601L818 601L900 601L900 515L818 521L736 557L655 563L573 545L491 533L409 551L327 503L245 545L164 527L82 509L0 545Z" fill="#757575"></path></svg>